# xmcd
#
# Track frame offsets: 
#        150
#        9362
#        22649
#        34796
#        49578
#        58999
#        78216
#        91211
#        105133
#        116978
#        131129
#        141440
#
# Disc length: 2017 seconds
#
# Revision: 0
# Processed by: cddbd v1.5.2PL0 Copyright (c) Steve Scherf et al.
# Submitted via: ExactAudioCopy v1.0b1
#
DISCID=9107df0c
DTITLE=Dailey and Vincent - Singing From The Heart
DYEAR=2009
DGENRE=Bluegrass
TTITLE0=Joshua Fit The Battle Of Jericho
TTITLE1=Near The Cross
TTITLE2=Hide Me, Rock Of Ages
TTITLE3=Farther Along
TTITLE4=I Am Resolved
TTITLE5=The Old Rugged Cross
TTITLE6=Moses Smote The Water
TTITLE7=Amazing Grace
TTITLE8=Jesus Is Coming Soon
TTITLE9=O To Be Like Thee
TTITLE10=Til I See You Face To Face
TTITLE11=Don't You Wanna Go To Heaven
EXTD=
EXTT0=
EXTT1=
EXTT2=
EXTT3=
EXTT4=
EXTT5=
EXTT6=
EXTT7=
EXTT8=
EXTT9=
EXTT10=
EXTT11=
PLAYORDER=
